<?xml version="1.0" encoding="utf-8"?>
<svg width="382px" height="265px" viewBox="0 0 382 265" version="1.1" xmlns:xlink="http://www.w3.org/1999/xlink" xmlns="http://www.w3.org/2000/svg">
  <desc>Created with Lunacy</desc>
  <g id="about-right-move">
    <path d="M65.1007 0.00937492C64.4925 0.0688656 64.1493 -0.0427045 63.5413 0.0195903C58.1548 0.560213 52.7642 1.23284 47.4008 2.05248C44.4021 2.50878 41.4107 3.02857 38.4407 3.62748C37.8198 3.75227 37.1983 3.88066 36.5774 4.01327C34.8623 4.37762 33.1545 4.76902 31.4561 5.18845C30.9329 5.31765 30.4098 5.45145 29.8892 5.58726L28.0244 6.08622C26.5656 6.49003 25.1156 6.92369 23.6809 7.39501C23.0057 7.61414 22.3337 7.84169 21.6667 8.07585C21.0418 8.29578 20.4197 8.52172 19.8004 8.75809C18.5789 9.21838 17.372 9.70973 16.1878 10.2333C15.2526 10.644 14.3353 11.0788 13.4375 11.5401C12.805 11.864 12.1817 12.2017 11.568 12.5517C10.7809 12.9997 10.0138 13.4707 9.26643 13.964C7.11248 15.388 5.13705 17.0225 3.57669 18.9031C2.01115 20.7752 0.870649 22.887 0.35864 25.0883C-0.173314 27.2871 -0.0831591 29.5383 0.429248 31.6854C0.223807 29.5038 0.461361 27.3089 1.2207 25.2624C1.98203 23.2149 3.26135 21.331 4.90987 19.7061C6.56118 18.0763 8.53921 16.6833 10.6836 15.4831C10.9686 15.3229 11.2564 15.169 11.5458 15.0152L11.4006 31.1624L13.2608 31.1794L13.4146 14.0974C14.7501 13.4793 16.131 12.916 17.534 12.3922C18.2737 12.1186 19.0217 11.8568 19.7747 11.6082L19.6027 30.6967L21.4629 30.7137L21.6402 11.0173C23.7213 10.3848 25.8474 9.83372 27.9953 9.33616L27.8021 30.7712L29.6622 30.788L29.8591 8.91833C30.7522 8.72323 31.647 8.53855 32.545 8.35968C33.8724 8.09948 35.2045 7.85912 36.5447 7.63357L36.3357 30.8487L38.1952 30.8655L38.4072 7.32911C40.5695 6.9912 42.7407 6.68733 44.9219 6.41071L44.9231 6.41071L44.7045 30.653L46.5647 30.67L46.7853 6.17916C47.2667 6.12288 47.7464 6.06599 48.2285 6.0095C50.0829 5.79678 51.9391 5.60649 53.8006 5.43423L53.5766 30.3267L55.4361 30.3437L55.6619 5.26597L55.6623 5.26597C58.1619 5.04684 60.6689 4.85435 63.1777 4.67187L63.1785 4.67187L62.9491 30.1414L64.8089 30.1582C64.8089 30.1582 65.0785 0.517348 65.1007 0.00937492" transform="translate(314.2371 79.53674)" id="Fill-31" fill="#F2F4EA" stroke="none" />
    <path d="M37.5134 62.3374L0 62.189L5.74678 14.3302L7.4681 0L29.3257 0.411827L31.1236 14.0077L37.5134 62.3374Z" transform="translate(211.1496 0.0002441406)" id="Fill-33" fill="#323232" stroke="none" />
    <path d="M0 13.9648C1.66288 13.9691 24.1107 14.038 25.3665 14.2669C25.393 14.2717 25.409 14.2761 25.4171 14.2807L23.6605 1.35406L23.5315 0.411626L23.4822 0.0456695L1.67704 0L0 13.9648Z" transform="translate(216.9407 -0.0001220703)" id="Fill-35" fill="#D86050" stroke="none" />
    <path d="M171.638 60.4982C171.623 62.1687 170.262 63.5103 168.599 63.4953L2.98482 61.991C1.32134 61.976 -0.0150311 60.6099 0.000127698 58.9394L0.503959 2.99728C0.518918 1.32674 1.87942 -0.014898 3.5431 0.000124941L169.157 1.50421C170.82 1.51944 172.157 2.88551 172.142 4.55606L171.638 60.4982Z" transform="translate(137.7552 58.71008)" id="Fill-37" fill="#76BCB9" stroke="none" />
    <path d="M24.0893 45.5504C24.0743 47.2206 22.7138 48.5626 21.0505 48.5476L2.98462 48.3835C1.32114 48.3683 -0.0150311 47.0018 0.000127716 45.3317L0.381292 2.99769C0.396451 1.32714 1.75675 -0.0148979 3.42043 0.000124903L21.4861 0.164175C23.1496 0.179197 24.4856 1.54608 24.4704 3.21622L24.0893 45.5504Z" transform="translate(145.338 66.33801)" id="Fill-39" fill="#49586B" stroke="none" />
    <path d="M15.0555 16.7687L0 16.6319L0.149794 0L15.2053 0.136808L15.0555 16.7687Z" transform="translate(181.6766 72.68665)" id="Fill-41" fill="#F3F3E9" stroke="none" />
    <path d="M15.0561 16.7689L0 16.6319L0.149793 0L15.2059 0.136808L15.0561 16.7689Z" transform="translate(210.2826 72.94678)" id="Fill-43" fill="#F3F3E9" stroke="none" />
    <path d="M15.0559 16.7687L0 16.6321L0.149793 0L15.2057 0.136809L15.0559 16.7687Z" transform="translate(239.6415 73.21375)" id="Fill-45" fill="#F3F3E9" stroke="none" />
    <path d="M15.0561 16.7689L0 16.6321L0.149793 0L15.2057 0.137008L15.0561 16.7689Z" transform="translate(270.2548 73.4917)" id="Fill-47" fill="#F3F3E9" stroke="none" />
    <path d="M114.695 34.6162C114.228 31.8772 113.13 29.2354 111.602 26.8822C110.08 24.5196 108.138 22.4519 106.013 20.6434C105.276 20.0166 104.519 19.4169 103.74 18.8454C103.135 18.3989 102.519 17.9673 101.892 17.5535C101.004 16.9628 100.096 16.4053 99.1691 15.8773C97.9953 15.2039 96.7985 14.5703 95.5866 13.9746C94.9719 13.6691 94.3546 13.3759 93.7346 13.0905C93.0724 12.7874 92.4049 12.4911 91.7345 12.2053C90.3096 11.5928 88.8689 11.0253 87.4176 10.4947L85.5637 9.83791C85.0459 9.65904 84.5255 9.48337 84.0047 9.31211C82.3155 8.75707 80.6161 8.23748 78.9083 7.75054C78.29 7.57387 77.6717 7.40201 77.053 7.23515C74.0958 6.43133 71.1153 5.72646 68.1266 5.0995C62.7804 3.97439 57.4048 3.03095 52.0302 2.25097C49.3455 1.85376 46.6532 1.50143 44.0058 1.13227L42.9628 0.996259L41.9073 0.876678C41.2078 0.803967 40.5129 0.742674 39.823 0.685787C38.4435 0.572214 37.0738 0.48448 35.7091 0.406762C32.9798 0.243113 30.2594 0.177814 27.5443 0.105504C24.8315 0.0303898 22.1181 0.0107594 19.41 0.00114501C13.9886 -0.0100722 8.58626 0.0594337 3.16021 0.284776L3.16021 0.28738L0.348652 0.314822L0 39.0393L6.15148 39.0952L6.45087 5.86787C9.126 5.92716 11.8037 5.97704 14.479 6.0189L14.48 6.0189L14.191 38.0875L16.051 38.1045L16.3396 6.05135C18.6232 6.09201 20.904 6.12987 23.1798 6.17354L23.18 6.17354L22.8906 38.3341L24.7503 38.3511L25.0397 6.21019C27.3808 6.26207 29.7146 6.31856 32.0457 6.39267L32.0469 6.39267L31.7555 38.7511L33.6154 38.7679L33.9064 6.45256C34.4127 6.47199 34.9167 6.48942 35.4231 6.50905C37.3278 6.58677 39.222 6.67209 41.0782 6.82753L41.079 6.82753L40.7893 39.0015L42.6491 39.0183L42.9373 7.01101C43.0472 7.01962 43.1547 7.03264 43.2646 7.04686L50.4409 7.82024L50.1549 39.5902L52.0146 39.6072L52.2991 8.02615L52.2995 8.02615C54.8045 8.30318 57.3069 8.59302 59.8017 8.91571L59.8019 8.91571L59.5218 40.0118L61.3816 40.0286L61.6596 9.16228C63.5172 9.41307 65.3695 9.68728 67.2191 9.98894C67.6996 10.0693 68.1781 10.1488 68.6588 10.2291L68.3853 40.5965L70.2455 40.6135L70.516 10.553C70.5165 10.553 70.5167 10.553 70.5172 10.5534C72.6926 10.941 74.8574 11.3616 77.0117 11.8249L76.7488 41.0091L78.6088 41.026L78.8681 12.24C80.2032 12.547 81.5304 12.8717 82.8526 13.2211C83.7466 13.4614 84.6378 13.7086 85.5266 13.969L85.2822 41.0867L87.142 41.1035L87.3813 14.5254C89.5191 15.1848 91.6336 15.9126 93.7019 16.7378L93.4819 41.161L95.3417 41.178L95.5547 17.5082C96.3027 17.8329 97.0449 18.1722 97.7797 18.5267C99.1715 19.205 100.541 19.9307 101.864 20.7239L101.673 41.9061L103.533 41.9229L103.713 21.9003C104 22.0974 104.284 22.2939 104.566 22.498C106.686 24.0297 108.635 25.7962 110.253 27.8505C111.869 29.8996 113.11 32.2598 113.83 34.8153C114.547 37.3672 114.741 40.0939 114.491 42.7939C115.047 40.1424 115.183 37.353 114.695 34.6162" transform="translate(2.193649 70.91101)" id="Fill-49" fill="#F2F4EA" stroke="none" />
    <path d="M379.516 39.3655C378.441 44.4859 376.788 49.6177 374.425 54.7715C367.389 70.1165 351.284 78.064 339.158 88.0115C323.915 100.52 313.015 117.992 308.042 136.779C302.38 158.164 299.801 158.614 299.801 158.614L159.783 158.614C159.783 158.614 162.272 157.388 154.47 143.837C152.789 140.92 150.769 138.078 148.505 135.33C140.306 125.377 128.926 116.651 119.055 109.954C93.8422 92.8567 61.7089 86.4221 39.3238 65.3368C33.3604 59.7193 21.6961 48.3113 12.6124 36.0332C7.67478 29.3619 3.50033 22.4349 1.41938 16.0412C-0.549266 9.9936 -0.6472 4.42233 2.25411 0L379.042 1.70239C380.126 7.64383 380.88 13.566 381.099 19.4895C381.342 26.1085 380.914 32.729 379.516 39.3655L379.042 151.943" transform="translate(0 105.856)" id="Fill-51" fill="#DFDFD2" stroke="none" />
    <path d="M30.1126 15.257C30.0374 23.6075 23.2355 30.3155 14.9203 30.24C6.60548 30.1645 -0.0745671 23.3341 0.000628666 14.9836C0.0758238 6.63292 6.87774 -0.0748837 15.1925 0.000631391C23.5079 0.0761465 30.1878 6.90654 30.1126 15.257" transform="translate(162.7324 199.4165)" id="Fill-53" fill="#323232" stroke="none" />
    <path d="M30.1124 15.257C30.0372 23.6076 23.2357 30.3156 14.9203 30.2398C6.60548 30.1643 -0.0745672 23.3341 0.000628666 14.9836C0.0760239 6.63272 6.87774 -0.0748837 15.1925 0.00063141C23.5081 0.0761465 30.1876 6.90634 30.1124 15.257" transform="translate(207.3983 199.8223)" id="Fill-55" fill="#323232" stroke="none" />
    <path d="M30.1126 15.2568C30.0374 23.6076 23.2357 30.3154 14.9201 30.2398C6.60547 30.1643 -0.0745671 23.3341 0.000628666 14.9834C0.0758238 6.63313 6.87773 -0.0750805 15.1923 0.000634689C23.5081 0.0761498 30.1878 6.90654 30.1126 15.2568" transform="translate(251.5627 200.2238)" id="Fill-57" fill="#323232" stroke="none" />
    <path d="M378.096 23.3243L11.193 19.992C6.2554 13.3207 2.08094 6.39373 0 0L379.679 3.44825C379.923 10.0673 379.494 16.6878 378.096 23.3243" transform="translate(1.419373 121.8971)" id="Fill-59" fill="#76BCB9" stroke="none" />
    <path d="M26.5184 0.149266C37.86 1.42921 46.7897 10.7215 47.6151 22.1978C47.6615 22.8438 47.6833 23.4962 47.6775 24.1568C47.6735 24.5878 47.6575 25.0187 47.6334 25.4454C46.8994 37.2519 37.6176 46.7365 25.989 47.7829C25.2105 47.8542 24.4215 47.8875 23.6235 47.8803C23.2598 47.8769 22.896 47.8657 22.5376 47.8448C10.2893 47.1792 0.504488 37.2018 0.0180101 24.9039C0.00384815 24.5129 -0.00273334 24.1197 0.00105619 23.7239C0.00644141 23.1086 0.0345652 22.4997 0.0876206 21.8978C1.11343 9.75909 11.1813 0.206953 23.4352 0.00284252C23.6404 0.000439267 23.8466 -0.000962803 24.0547 0.00104025C24.8882 0.00865159 25.7084 0.0591282 26.5184 0.149266ZM23.8117 36.1556C24.5926 36.1627 25.3541 36.0915 26.0927 35.9495C31.1821 34.9694 35.1042 30.6216 35.4359 25.2937C35.4505 25.087 35.4575 24.8777 35.4595 24.669C35.4677 23.764 35.3721 22.8809 35.1814 22.0348C34.2067 17.6501 30.7495 14.1876 26.3652 13.2354C25.6087 13.0695 24.8244 12.9794 24.0206 12.9722C23.7724 12.9698 23.5291 12.9752 23.2854 12.9882C18.0823 13.271 13.7712 17.0384 12.6597 22.0163C12.4815 22.8043 12.3842 23.6192 12.3768 24.4593C12.3752 24.6481 12.378 24.8348 12.3866 25.0209C12.6082 30.7606 17.011 35.4586 22.6329 36.0843C23.0219 36.1278 23.4152 36.1522 23.8117 36.1556Z" transform="translate(198.1548 130.7651)" id="Fill-61" fill="#D86050" fill-rule="evenodd" stroke="none" />
    <path d="M3.45475 11.8334C2.67627 11.9045 1.88721 11.9378 1.08918 11.9306C0.725366 11.9273 0.361554 11.9161 0.00312724 11.8953C0.00392543 11.7943 0.00193098 11.6938 0.00272849 11.5932C-0.00345425 7.83933 -0.00844073 3.97264 0.0986679 0.134805C0.487413 0.17807 0.880944 0.202708 1.27747 0.206113C2.05835 0.213124 2.81968 0.142016 3.55847 0C3.44378 3.86268 3.45096 7.78545 3.45395 11.5888C3.45336 11.67 3.45555 11.7529 3.45475 11.8334" transform="translate(220.6891 166.7147)" id="Fill-63" fill="#F2F4EA" stroke="none" />
    <path d="M3.07983 13.2351L3.1295 8.87246C3.16021 5.96383 3.19432 3.05501 3.23302 0.14919C2.42302 0.0590525 1.60285 0.00857594 0.76931 0.000964606C0.561275 -0.00103845 0.355035 0.000363621 0.149793 0.00256678C0.112694 2.94644 0.0815787 5.89052 0.0474709 8.8366L0 12.9881L3.07983 13.2351Z" transform="translate(221.4402 130.7653)" id="Fill-65" fill="#F2F4EA" stroke="none" />
    <path d="M12.452 3.41038C10.5142 3.41499 8.67661 3.41138 6.89466 3.39516C4.61625 3.37433 2.43259 3.33427 0.254508 3.25875C0.269068 3.05204 0.276049 2.84272 0.278044 2.634C0.286222 1.72903 0.190681 0.845885 0 0C3.95006 0.138811 7.92306 0.172462 12.4336 0.162847L12.452 3.41038Z" transform="translate(233.3362 152.8)" id="Fill-67" fill="#F2F4EA" stroke="none" />
    <path d="M12.6416 0.118781C9.07514 0.0817244 4.61267 0.0358549 0.0696106 0L0 3.00637C4.45489 3.04183 8.8316 3.0865 12.3686 3.12335L12.6416 0.118781Z" transform="translate(198.1729 152.6627)" id="Fill-69" fill="#F2F4EA" stroke="none" />
    <path d="M26.5187 0.14906C37.8601 1.42961 46.7898 10.7211 47.6148 22.1978C47.6618 22.8436 47.6838 23.4968 47.678 24.1572C47.674 24.5878 47.657 25.0195 47.6335 25.4447C46.8999 37.2527 37.6173 46.7369 25.9893 47.7829C25.2105 47.8546 24.422 47.8875 23.6234 47.8801C23.2602 47.8769 22.8963 47.8661 22.5373 47.8452C10.2892 47.1792 0.504995 37.2018 0.018119 24.9039C0.00395708 24.5129 -0.00262509 24.1197 0.000965063 23.7243C0.00635097 23.1094 0.0346734 22.4997 0.0877295 21.8971C1.11314 9.75948 11.1818 0.206948 23.4349 0.00323789C23.6409 -0.000567439 23.8466 -0.000768225 24.0546 0.000834631C24.8883 0.00844597 25.7087 0.0589225 26.5187 0.14906ZM23.8119 36.1552C24.5929 36.1624 25.3539 36.0909 26.0931 35.9499C31.1826 34.9698 35.1044 30.6216 35.4357 25.2937C35.4506 25.087 35.457 24.8781 35.459 24.6688C35.467 23.7642 35.372 22.8808 35.1818 22.0348C34.2068 17.6497 30.7494 14.1876 26.3653 13.2356C25.609 13.0699 24.8239 12.9794 24.0207 12.9722C23.7724 12.9698 23.5292 12.9756 23.2855 12.9882C18.082 13.2714 13.7713 17.0384 12.6598 22.0167C12.4816 22.8039 12.3839 23.62 12.3761 24.4592C12.3747 24.6485 12.3777 24.8348 12.3863 25.0213C12.6083 30.7606 17.0109 35.4586 22.6331 36.0843C23.022 36.1282 23.4157 36.1516 23.8119 36.1552Z" transform="translate(252.1673 131.3555)" id="Fill-71" fill="#D86050" fill-rule="evenodd" stroke="none" />
    <path d="M3.45506 11.833C2.67617 11.9045 1.88771 11.9374 1.08908 11.9299C0.725671 11.9269 0.361859 11.9161 0.00283368 11.8953C0.00363119 11.7943 0.00203617 11.6938 0.00283368 11.5928C-0.00354913 7.83932 -0.00853561 3.97264 0.0987731 0.134404C0.487517 0.17807 0.881448 0.201707 1.27757 0.205312C2.05845 0.212323 2.81938 0.141014 3.55878 0C3.44349 3.86308 3.45107 7.78444 3.45446 11.5888C3.45366 11.6695 3.45586 11.7525 3.45506 11.833" transform="translate(274.7017 167.3054)" id="Fill-73" fill="#F2F4EA" stroke="none" />
    <path d="M3.07983 13.2356L3.1291 8.87314C3.15981 5.96412 3.19412 3.05609 3.23322 0.149071C2.42322 0.0591344 1.60284 0.00865718 0.76911 0.00104584C0.561075 -0.000757111 0.355434 -0.000356226 0.149394 0.003249C0.113093 2.94673 0.0817774 5.89081 0.0470721 8.83729L0 12.9884L3.07983 13.2356Z" transform="translate(275.4528 131.3553)" id="Fill-75" fill="#F2F4EA" stroke="none" />
    <path d="M12.4518 3.40979C10.514 3.4152 8.67641 3.41079 6.89446 3.39457C4.61605 3.37394 2.43239 3.33408 0.25391 3.25876C0.268869 3.05205 0.275252 2.84313 0.277246 2.63381C0.285225 1.72923 0.190283 0.845888 0 0C3.94926 0.139011 7.92246 0.172863 12.433 0.162848L12.4518 3.40979Z" transform="translate(287.349 153.3904)" id="Fill-77" fill="#F2F4EA" stroke="none" />
    <path d="M12.6418 0.119782C9.07534 0.0819246 4.61267 0.0366554 0.0698106 0L0 3.00698C4.45489 3.04223 8.8318 3.0871 12.3684 3.12436L12.6418 0.119782Z" transform="translate(252.1853 153.2524)" id="Fill-79" fill="#F2F4EA" stroke="none" />
    <path d="M26.5187 0.149727C37.8601 1.42927 46.7896 10.7212 47.615 22.1987C47.6618 22.8437 47.684 23.4972 47.678 24.1573C47.674 24.5883 47.6576 25.0196 47.6335 25.4452C46.8993 37.2528 37.6173 46.7368 25.9893 47.7834C25.2101 47.8551 24.4224 47.8876 23.6238 47.8801C23.2604 47.8769 22.8963 47.8667 22.5369 47.8457C10.2896 47.1791 0.505394 37.2019 0.0181183 24.904C0.00395709 24.513 -0.00262508 24.12 0.000965067 23.7242C0.00654967 23.1093 0.0346734 22.4997 0.0877288 21.8976C1.11314 9.75975 11.182 0.207014 23.4353 0.00330453C23.6409 0.000299608 23.847 -0.000902362 24.055 0.000900593C24.8883 0.00851193 25.7089 0.0589892 26.5187 0.149727ZM23.8123 36.1557C24.5927 36.1627 25.3541 36.0918 26.0933 35.9494C31.1826 34.9703 35.1048 30.6217 35.4361 25.2942C35.4506 25.0873 35.458 24.8781 35.4598 24.6688C35.468 23.7643 35.3724 22.8813 35.182 22.0348C34.2076 17.6506 30.7496 14.1881 26.3657 13.2356C25.6094 13.0698 24.8241 12.9798 24.0211 12.9726C23.7726 12.9702 23.5292 12.9756 23.2861 12.9887C18.0822 13.2711 13.7709 17.0386 12.6594 22.0164C12.4818 22.8044 12.3845 23.62 12.3767 24.4591C12.3751 24.6484 12.3781 24.8353 12.3861 25.0214C12.6087 30.7607 17.0113 35.459 22.6333 36.0844C23.0224 36.1283 23.4159 36.1521 23.8123 36.1557Z" transform="translate(305.6656 131.8914)" id="Fill-81" fill="#D86050" fill-rule="evenodd" stroke="none" />
    <path d="M3.45428 11.834C2.6752 11.9055 1.88754 11.9382 1.08891 11.9305C0.725299 11.9275 0.361288 11.9173 0.00186493 11.8963C0.0028625 11.7949 0.00186493 11.6944 0.0028625 11.5934C-0.00352029 7.83992 -0.00870613 3.97364 0.0984029 0.135005C0.487345 0.178671 0.881075 0.202708 1.2774 0.206314C2.05768 0.213324 2.81901 0.142416 3.5582 0C3.44311 3.86328 3.45049 7.78544 3.45388 11.5894C3.45308 11.6706 3.45488 11.7535 3.45428 11.834" transform="translate(328.2006 167.8408)" id="Fill-83" fill="#F2F4EA" stroke="none" />
    <path d="M3.07962 13.2354L3.12889 8.87295C3.1598 5.96392 3.19391 3.0559 3.2326 0.14968C2.42281 0.0589424 1.60224 0.00846518 0.768908 0.00085385C0.560874 -0.000949104 0.354834 0.000252866 0.149194 0.003057C0.112295 2.94713 0.081379 5.89061 0.0466732 8.83709L0 12.9886L3.07962 13.2354Z" transform="translate(328.9517 131.8915)" id="Fill-85" fill="#F2F4EA" stroke="none" />
    <path d="M12.4516 3.41018C10.5136 3.41479 8.67683 3.41118 6.89447 3.39496C4.61606 3.37413 2.43239 3.33407 0.254109 3.25915C0.268669 3.05244 0.27605 2.84312 0.277845 2.6338C0.286023 1.72923 0.190482 0.846286 0 0C3.94947 0.139412 7.92287 0.172462 12.433 0.163649L12.4516 3.41018Z" transform="translate(340.8476 153.9263)" id="Fill-87" fill="#F2F4EA" stroke="none" />
    <path d="M12.6414 0.11898C9.07514 0.0817242 4.61286 0.036255 0.0698099 0L0 3.00657C4.45489 3.04182 8.8322 3.08669 12.3682 3.12395L12.6414 0.11898Z" transform="translate(305.6836 153.7888)" id="Fill-89" fill="#F2F4EA" stroke="none" />
    <path d="M25.5952 12.9681C25.5313 20.0659 19.7499 25.7671 12.6821 25.7028C5.61448 25.6387 -0.0634898 19.8331 0.000536197 12.7357C0.0643627 5.63792 5.84585 -0.0639561 12.9136 0.000541833C19.9814 0.0646396 25.659 5.87047 25.5952 12.9681" transform="translate(39.26076 131.0145)" id="Fill-93" fill="#323232" stroke="none" />
  </g>
</svg>